<?xml version="1.0" encoding="UTF-8" standalone="no"?>
<!DOCTYPE svg PUBLIC "-//W3C//DTD SVG 1.1//EN"
 "http://www.w3.org/Graphics/SVG/1.1/DTD/svg11.dtd">
<!-- Generated by graphviz version 2.43.0 (0)
 -->
<!-- Title: %3 Pages: 1 -->
<svg width="225pt" height="252pt"
 viewBox="0.00 0.00 225.00 251.91" xmlns="http://www.w3.org/2000/svg" xmlns:xlink="http://www.w3.org/1999/xlink">
<g id="graph0" class="graph" transform="scale(1 1) rotate(0) translate(4 247.91)">
<title>%3</title>
<polygon fill="white" stroke="transparent" points="-4,4 -4,-247.91 221,-247.91 221,4 -4,4"/>
<g id="clust1" class="cluster">
<title>clusterdecision (2)</title>
<path fill="none" stroke="black" d="M20,-121.95C20,-121.95 77,-121.95 77,-121.95 83,-121.95 89,-127.95 89,-133.95 89,-133.95 89,-223.91 89,-223.91 89,-229.91 83,-235.91 77,-235.91 77,-235.91 20,-235.91 20,-235.91 14,-235.91 8,-229.91 8,-223.91 8,-223.91 8,-133.95 8,-133.95 8,-127.95 14,-121.95 20,-121.95"/>
<text text-anchor="middle" x="48.5" y="-129.75" font-family="Times,serif" font-size="14.00">decision (2)</text>
</g>
<g id="clust2" class="cluster">
<title>cluster24</title>
<path fill="none" stroke="black" d="M109,-8C109,-8 197,-8 197,-8 203,-8 209,-14 209,-20 209,-20 209,-212.93 209,-212.93 209,-218.93 203,-224.93 197,-224.93 197,-224.93 109,-224.93 109,-224.93 103,-224.93 97,-218.93 97,-212.93 97,-212.93 97,-20 97,-20 97,-14 103,-8 109,-8"/>
<text text-anchor="middle" x="194" y="-15.8" font-family="Times,serif" font-size="14.00">24</text>
</g>
<!-- p -->
<g id="node1" class="node">
<title>p</title>
<ellipse fill="none" stroke="black" cx="52" cy="-190.43" rx="28.98" ry="37.45"/>
<text text-anchor="middle" x="52" y="-201.73" font-family="Times,serif" font-size="14.00">p</text>
<text text-anchor="middle" x="52" y="-186.73" font-family="Times,serif" font-size="14.00">~</text>
<text text-anchor="middle" x="52" y="-171.73" font-family="Times,serif" font-size="14.00">Beta</text>
</g>
<!-- obs -->
<g id="node2" class="node">
<title>obs</title>
<ellipse fill="lightgrey" stroke="black" cx="153" cy="-76.48" rx="48.17" ry="37.45"/>
<text text-anchor="middle" x="153" y="-87.78" font-family="Times,serif" font-size="14.00">obs</text>
<text text-anchor="middle" x="153" y="-72.78" font-family="Times,serif" font-size="14.00">~</text>
<text text-anchor="middle" x="153" y="-57.78" font-family="Times,serif" font-size="14.00">Bernoulli</text>
</g>
<!-- p&#45;&gt;obs -->
<g id="edge1" class="edge">
<title>p&#45;&gt;obs</title>
<path fill="none" stroke="black" d="M67.45,-158.48C74.33,-146.36 83.12,-132.79 93,-121.95 97.64,-116.87 102.93,-111.98 108.41,-107.43"/>
<polygon fill="black" stroke="black" points="110.85,-109.96 116.51,-101.01 106.5,-104.47 110.85,-109.96"/>
</g>
<!-- decision_obs -->
<g id="node3" class="node">
<title>decision_obs</title>
<path fill="lightgrey" stroke="black" d="M184.5,-216.93C184.5,-216.93 121.5,-216.93 121.5,-216.93 115.5,-216.93 109.5,-210.93 109.5,-204.93 109.5,-204.93 109.5,-175.93 109.5,-175.93 109.5,-169.93 115.5,-163.93 121.5,-163.93 121.5,-163.93 184.5,-163.93 184.5,-163.93 190.5,-163.93 196.5,-169.93 196.5,-175.93 196.5,-175.93 196.5,-204.93 196.5,-204.93 196.5,-210.93 190.5,-216.93 184.5,-216.93"/>
<text text-anchor="middle" x="153" y="-201.73" font-family="Times,serif" font-size="14.00">decision_obs</text>
<text text-anchor="middle" x="153" y="-186.73" font-family="Times,serif" font-size="14.00">~</text>
<text text-anchor="middle" x="153" y="-171.73" font-family="Times,serif" font-size="14.00">Data</text>
</g>
<!-- decision_obs&#45;&gt;obs -->
<g id="edge2" class="edge">
<title>decision_obs&#45;&gt;obs</title>
<path fill="none" stroke="black" d="M153,-163.75C153,-152.02 153,-137.75 153,-124.22"/>
<polygon fill="black" stroke="black" points="156.5,-124.07 153,-114.07 149.5,-124.07 156.5,-124.07"/>
</g>
</g>
</svg>
